# xmcd
#
# Track frame offsets:
#	150
#	27152
#	55076
#	80721
#	110720
#	134119
#	161013
#
# Disc length: 2599 seconds
#
# Revision: 1
# Processed by: cddbd v1.5.2PL0 Copyright (c) Steve Scherf et al.
# Submitted via: audiograbber 1.83.01
#
DISCID=600a2507
DTITLE=Carl Verheyen Band - The Road Divides CD1
DYEAR=1900
DGENRE=Blues
TTITLE0=The Road Divides
TTITLE1=Chinatown
TTITLE2=Taxman
TTITLE3=Highland Shuffle
TTITLE4=Your Bring Me Down
TTITLE5=On Our Way
TTITLE6=New Year`s Day
EXTD=
EXTT0=
EXTT1=
EXTT2=
EXTT3=
EXTT4=
EXTT5=
EXTT6=
PLAYORDER=
